<svg xmlns="http://www.w3.org/2000/svg" height="24" viewBox="0 -960 960 960" width="24" fill="context-fill" fill-opacity="context-fill-opacity"><path d="M216-144q-29.7 0-50.85-21.15Q144-186.3 144-216v-168q40-2 68-29.5t28-66.5q0-39-28-66.5T144-576v-168q0-29.7 21.15-50.85Q186.3-816 216-816h168q0-40 27.77-68 27.78-28 68-28Q520-912 548-884.16q28 27.84 28 68.16h168q29.7 0 50.85 21.15Q816-773.7 816-744v168q40 0 68 27.77 28 27.78 28 68Q912-440 884.16-412q-27.84 28-68.16 28v168q0 29.7-21.15 50.85Q773.7-144 744-144H216Zm0-72h528v-528H216v112q45 20 70.5 61.5T312-480q0 50.21-25.5 91.6Q261-347 216-328v112Zm264-264Z"></path></svg>

