<svg xmlns="http://www.w3.org/2000/svg" xmlns:xlink="http://www.w3.org/1999/xlink" version="1.1" width="16" height="16" viewBox="0 0 256 256" xml:space="preserve">
<g style="stroke: none; stroke-width: 0; stroke-dasharray: none; stroke-linecap: butt; stroke-linejoin: miter; stroke-miterlimit: 10; fill: none; fill-rule: nonzero; opacity: 1;" transform="translate(1.4065934065934016 1.4065934065934016) scale(2.81 2.81)" >
	<path d="M 3.649 34.444 h 82.703 c 2.015 0 3.649 -1.634 3.649 -3.649 v -10.12 c 0 -2.015 -1.634 -3.649 -3.649 -3.649 H 35.525 c -1.909 0 -3.706 -0.903 -4.846 -2.435 l -2.457 -3.301 c -0.812 -1.092 -2.093 -1.735 -3.454 -1.735 H 3.649 C 1.634 9.556 0 11.19 0 13.205 v 17.591 C 0 32.81 1.634 34.444 3.649 34.444 z" style="stroke: none; stroke-width: 1; stroke-dasharray: none; stroke-linecap: butt; stroke-linejoin: miter; stroke-miterlimit: 10; fill: rgb(47,159,210); fill-rule: nonzero; opacity: 1;" transform=" matrix(1 0 0 1 0 0) " stroke-linecap="round" />
	<linearGradient id="SVGID_1" gradientUnits="userSpaceOnUse" x1="45" y1="80.444" x2="45" y2="25.4616">
<stop offset="0%" style="stop-color:rgb(30,110,146);stop-opacity: 1"/>
<stop offset="100%" style="stop-color:rgb(54,176,231);stop-opacity: 1"/>
</linearGradient>
<path d="M 86.351 80.444 H 3.649 C 1.634 80.444 0 78.81 0 76.795 V 29.11 c 0 -2.015 1.634 -3.649 3.649 -3.649 h 82.703 c 2.015 0 3.649 1.634 3.649 3.649 v 47.685 C 90 78.81 88.366 80.444 86.351 80.444 z" style="stroke: none; stroke-width: 1; stroke-dasharray: none; stroke-linecap: butt; stroke-linejoin: miter; stroke-miterlimit: 10; fill: url(#SVGID_1); fill-rule: nonzero; opacity: 1;" transform=" matrix(1 0 0 1 0 0) " stroke-linecap="round" />
</g>
</svg>