<svg xmlns="http://www.w3.org/2000/svg" width="16" height="16" viewBox="0 0 256 256" xml:space="preserve"><g style="stroke:none;stroke-width:0;stroke-dasharray:none;stroke-linecap:butt;stroke-linejoin:miter;stroke-miterlimit:10;fill:none;fill-rule:nonzero;opacity:1" transform="matrix(2.81 0 0 2.81 1.407 1.407)"><path d="M3.649 34.444h82.703a3.65 3.65 0 0 0 3.649-3.649v-10.12a3.65 3.65 0 0 0-3.649-3.649H35.525a6.041 6.041 0 0 1-4.846-2.435l-2.457-3.301a4.304 4.304 0 0 0-3.454-1.735H3.649A3.65 3.65 0 0 0 0 13.205v17.591a3.65 3.65 0 0 0 3.649 3.648z" style="stroke:none;stroke-width:1;stroke-dasharray:none;stroke-linecap:butt;stroke-linejoin:miter;stroke-miterlimit:10;fill:#2f9fd2;fill-rule:nonzero;opacity:1"/><linearGradient id="a" gradientUnits="userSpaceOnUse" x1="45" y1="80.444" x2="45" y2="25.462"><stop offset="0%" style="stop-color:#1e6e92;stop-opacity:1"/><stop offset="100%" style="stop-color:#36b0e7;stop-opacity:1"/></linearGradient><path d="M86.351 80.444H3.649A3.65 3.65 0 0 1 0 76.795V29.11a3.65 3.65 0 0 1 3.649-3.649h82.703a3.65 3.65 0 0 1 3.649 3.649v47.685a3.65 3.65 0 0 1-3.65 3.649z" style="stroke:none;stroke-width:1;stroke-dasharray:none;stroke-linecap:butt;stroke-linejoin:miter;stroke-miterlimit:10;fill:url(#a);fill-rule:nonzero;opacity:1"/></g></svg>