<svg width="24" height="24" viewBox="0 0 24 24" fill="none" xmlns="http://www.w3.org/2000/svg">
<path d="M2.8929 11.2929C2.50238 11.6834 2.50238 12.3166 2.8929 12.7071C3.28342 13.0976 3.91659 13.0976 4.30711 12.7071L2.8929 11.2929ZM12 3.60001L12.7071 2.8929C12.3166 2.50238 11.6834 2.50238 11.2929 2.8929L12 3.60001ZM19.6929 12.7071C20.0834 13.0976 20.7166 13.0976 21.1071 12.7071C21.4976 12.3166 21.4976 11.6834 21.1071 11.2929L19.6929 12.7071ZM17 9.60001V18H19V9.60001H17ZM15.6 19.4H8.40001V21.4H15.6V19.4ZM7.00001 18V9.60001H5.00001V18H7.00001ZM8.40001 19.4C7.62681 19.4 7.00001 18.7732 7.00001 18H5.00001C5.00001 19.8778 6.52224 21.4 8.40001 21.4V19.4ZM17 18C17 18.7732 16.3732 19.4 15.6 19.4V21.4C17.4778 21.4 19 19.8778 19 18H17ZM4.30711 12.7071L12.7071 4.30711L11.2929 2.8929L2.8929 11.2929L4.30711 12.7071ZM11.2929 4.30711L19.6929 12.7071L21.1071 11.2929L12.7071 2.8929L11.2929 4.30711Z" fill="context-fill" fill-opacity="context-fill-opacity"/>
</svg>
