<svg xmlns="http://www.w3.org/2000/svg" height="16" width="16" fill="context-fill" fill-opacity="context-fill-opacity"><path d="M 5.16 12.83 a 1.95 1.95 0 0 1 -1.44 -0.59 a 1.96 1.96 0 0 1 -0.59 -1.44 c 0 -0.57 0.2 -1.05 0.59 -1.44 c 0.39 -0.39 0.87 -0.59 1.44 -0.59 c 0.42 0 0.8 0.12 1.14 0.36 c 0.34 0.24 0.59 0.55 0.75 0.93 c 0.14 -0.06 0.29 -0.11 0.44 -0.13 c 0.16 -0.03 0.32 -0.04 0.47 -0.04 a 2.43 2.43 0 0 1 0.92 0.18 a 2.1 2.1 0 0 1 0.74 -0.93 c 0.34 -0.24 0.72 -0.36 1.14 -0.36 c 0.57 0 1.04 0.2 1.44 0.59 c 0.4 0.4 0.59 0.88 0.59 1.44 c 0 0.57 -0.2 1.05 -0.59 1.44 c -0.39 0.4 -0.87 0.59 -1.44 0.59 c -0.43 0 -0.82 -0.12 -1.16 -0.36 a 1.89 1.89 0 0 1 -0.73 -0.95 a 1.25 1.25 0 0 0 -1.41 -0.28 c -0.16 0.07 -0.29 0.16 -0.41 0.28 c -0.14 0.39 -0.38 0.71 -0.73 0.95 a 2 2 0 0 1 -1.16 0.36 Z m 0 -1.27 c 0.21 0 0.4 -0.07 0.54 -0.22 a 0.74 0.74 0 0 0 0.23 -0.54 a 0.74 0.74 0 0 0 -0.23 -0.54 a 0.73 0.73 0 0 0 -0.54 -0.23 a 0.73 0.73 0 0 0 -0.54 0.23 a 0.75 0.75 0 0 0 -0.23 0.54 c 0 0.21 0.08 0.39 0.23 0.54 a 0.74 0.74 0 0 0 0.54 0.22 Z m 5.6 0 a 0.75 0.75 0 0 0 0.54 -0.22 a 0.74 0.74 0 0 0 0.23 -0.54 a 0.73 0.73 0 0 0 -0.23 -0.54 a 0.74 0.74 0 0 0 -0.54 -0.23 a 0.73 0.73 0 0 0 -0.54 0.23 a 0.73 0.73 0 0 0 -0.23 0.54 c 0 0.21 0.08 0.39 0.23 0.54 a 0.74 0.74 0 0 0 0.54 0.22 Z M 2.3 8 V 6.68 h 2.04 L 5.59 2.78 c 0.1 -0.24 0.25 -0.41 0.45 -0.52 c 0.2 -0.11 0.42 -0.14 0.68 -0.08 l 1.25 0.33 l 1.25 -0.33 a 0.91 0.91 0 0 1 0.67 0.08 c 0.2 0.11 0.35 0.28 0.45 0.52 l 1.26 3.9 h 2.12 V 8 Z m 3.5 -1.32 h 4.33 l -0.99 -3.05 l -1.18 0.31 l -1.18 -0.31 Z m 2.18 -0.07 h 2.19 h -4.39 Z"/></svg>