<svg xmlns="http://www.w3.org/2000/svg" width="16" height="16" viewBox="0 0 14 4">
    <path fill="context-fill" fill-opacity="context-fill-opacity" d="M0.75 2C0.75 1.82812 0.783854 1.66667 0.851562 1.51562C0.919271 1.36458 1.00781 1.23438 1.11719 1.125C1.23177 1.01042 1.36458 0.919271 1.51562 0.851562C1.66667 0.783854 1.82812 0.75 2 0.75C2.17188 0.75 2.33333 0.783854 2.48438 0.851562C2.63542 0.919271 2.76562 1.01042 2.875 1.125C2.98958 1.23438 3.08073 1.36458 3.14844 1.51562C3.21615 1.66667 3.25 1.82812 3.25 2C3.25 2.17188 3.21615 2.33333 3.14844 2.48438C3.08073 2.63542 2.98958 2.76823 2.875 2.88281C2.76562 2.99219 2.63542 3.08073 2.48438 3.14844C2.33333 3.21615 2.17188 3.25 2 3.25C1.82812 3.25 1.66667 3.21615 1.51562 3.14844C1.36458 3.08073 1.23177 2.99219 1.11719 2.88281C1.00781 2.76823 0.919271 2.63542 0.851562 2.48438C0.783854 2.33333 0.75 2.17188 0.75 2ZM5.75 2C5.75 1.82812 5.78385 1.66667 5.85156 1.51562C5.91927 1.36458 6.00781 1.23438 6.11719 1.125C6.23177 1.01042 6.36458 0.919271 6.51562 0.851562C6.66667 0.783854 6.82812 0.75 7 0.75C7.17188 0.75 7.33333 0.783854 7.48438 0.851562C7.63542 0.919271 7.76562 1.01042 7.875 1.125C7.98958 1.23438 8.08073 1.36458 8.14844 1.51562C8.21615 1.66667 8.25 1.82812 8.25 2C8.25 2.17188 8.21615 2.33333 8.14844 2.48438C8.08073 2.63542 7.98958 2.76823 7.875 2.88281C7.76562 2.99219 7.63542 3.08073 7.48438 3.14844C7.33333 3.21615 7.17188 3.25 7 3.25C6.82812 3.25 6.66667 3.21615 6.51562 3.14844C6.36458 3.08073 6.23177 2.99219 6.11719 2.88281C6.00781 2.76823 5.91927 2.63542 5.85156 2.48438C5.78385 2.33333 5.75 2.17188 5.75 2ZM10.75 2C10.75 1.82812 10.7839 1.66667 10.8516 1.51562C10.9193 1.36458 11.0078 1.23438 11.1172 1.125C11.2318 1.01042 11.3646 0.919271 11.5156 0.851562C11.6667 0.783854 11.8281 0.75 12 0.75C12.1719 0.75 12.3333 0.783854 12.4844 0.851562C12.6354 0.919271 12.7656 1.01042 12.875 1.125C12.9896 1.23438 13.0807 1.36458 13.1484 1.51562C13.2161 1.66667 13.25 1.82812 13.25 2C13.25 2.17188 13.2161 2.33333 13.1484 2.48438C13.0807 2.63542 12.9896 2.76823 12.875 2.88281C12.7656 2.99219 12.6354 3.08073 12.4844 3.14844C12.3333 3.21615 12.1719 3.25 12 3.25C11.8281 3.25 11.6667 3.21615 11.5156 3.14844C11.3646 3.08073 11.2318 2.99219 11.1172 2.88281C11.0078 2.76823 10.9193 2.63542 10.8516 2.48438C10.7839 2.33333 10.75 2.17188 10.75 2Z"/>
</svg>

