<svg width="16" height="16" viewBox="0 0 12 12" fill="context-fill" fill-opacity="context-fill-opacity" xmlns="http://www.w3.org/2000/svg">
    <path  d="M1.5 6C1.5 3.51472 3.51472 1.5 6 1.5C7.07167 1.5 8.05551 1.87406 8.82878 2.5H7.75C7.33579 2.5 7 2.83579 7 3.25C7 3.66421 7.33579 4 7.75 4H10.25C10.6642 4 11 3.66421 11 3.25V0.75C11 0.335786 10.6642 0 10.25 0C9.83579 0 9.5 0.335786 9.5 0.75V1.12618C8.51514 0.41784 7.30617 0 6 0C2.68629 0 0 2.68629 0 6C0 9.31371 2.68629 12 6 12C9.31371 12 12 9.31371 12 6C12 5.58579 11.6642 5.25 11.25 5.25C10.8358 5.25 10.5 5.58579 10.5 6C10.5 8.48528 8.48528 10.5 6 10.5C3.51472 10.5 1.5 8.48528 1.5 6Z" />
</svg>
    
