
<svg width="16" height="16" viewBox="0 0 16 16" fill="none" xmlns="http://www.w3.org/2000/svg">
<path 
		fill-opacity="context-fill-opacity"
		fill="context-fill"
d="M8.62783 0.0250652C4.22317 -0.321589 0.371469 2.96807 0.0248156 7.37273C-0.321838 11.7774 2.96782 15.6291 7.37248 15.9757C11.7771 16.3224 15.6288 13.0327 15.9755 8.62808C15.9978 8.34461 16.0041 8.04005 15.995 7.73892C15.9826 7.3249 15.6369 6.99932 15.2229 7.01173C14.8089 7.02414 14.4833 7.36984 14.4957 7.78387C14.5032 8.03246 14.498 8.28298 14.4801 8.51039C14.1985 12.0892 11.069 14.762 7.49017 14.4804C3.91138 14.1987 1.23853 11.0692 1.52019 7.49042C1.80185 3.91164 4.93135 1.23879 8.51014 1.52044C10.2464 1.65709 11.8159 2.4709 12.9225 3.75512L13.126 4.003L10.7472 4.00387L10.6455 4.01072C10.2794 4.06038 9.99723 4.37417 9.99723 4.75387C9.99723 5.13356 10.2794 5.44736 10.6455 5.49702L10.7472 5.50387H14.7472L14.8489 5.49702C15.1817 5.45187 15.4452 5.18844 15.4903 4.85564L15.4972 4.75387V0.753869L15.4903 0.652098C15.4452 0.319302 15.1817 0.055863 14.8489 0.0107153L14.7472 0.00386864L14.6454 0.0107153C14.3126 0.055863 14.0492 0.319302 14.004 0.652098L13.9972 0.753869L13.9984 2.70662C12.6405 1.16672 10.7325 0.190704 8.62783 0.0250652Z"/>
</svg>

