<svg xmlns="http://www.w3.org/2000/svg" height="16" width="16" fill="context-fill" fill-opacity="context-fill-opacity"><path d="M 12.35 13.73 H 3.65 c -0.37 0 -0.7 -0.14 -0.97 -0.41 a 1.33 1.33 0 0 1 -0.41 -0.97 V 3.65 c 0 -0.38 0.14 -0.71 0.41 -0.98 c 0.27 -0.27 0.6 -0.4 0.97 -0.4 h 8.7 c 0.38 0 0.7 0.13 0.97 0.4 c 0.27 0.27 0.41 0.6 0.41 0.98 v 8.7 c 0 0.38 -0.14 0.7 -0.41 0.97 a 1.33 1.33 0 0 1 -0.97 0.41 Z M 3.65 5.41 h 8.7 V 3.65 H 3.65 Z m 1.57 1.2 h -1.57 v 5.74 h 1.57 Z m 5.56 0 v 5.74 h 1.57 V 6.61 Z m -1.2 0 H 6.42 v 5.74 h 3.16 Z"/></svg>